<?xml version="1.0" standalone="no"?>
<!DOCTYPE svg PUBLIC "-//W3C//DTD SVG 20010904//EN"
 "http://www.w3.org/TR/2001/REC-SVG-20010904/DTD/svg10.dtd">
<svg version="1.0" xmlns="http://www.w3.org/2000/svg"
 width="1000.000000pt" height="1000.000000pt" viewBox="0 0 1000.000000 1000.000000"
 preserveAspectRatio="xMidYMid meet">

<g transform="translate(0.000000,1000.000000) scale(0.100000,-0.100000)"
fill="#000" stroke="none">
<path d="M0 5000 l0 -5000 5000 0 5000 0 0 5000 0 5000 -5000 0 -5000 0 0
-5000z m2630 2347 c529 -542 1168 -860 1955 -974 171 -24 660 -24 830 0 674
97 1231 342 1725 758 113 96 307 287 407 404 l52 60 1 -2598 0 -2597 -88 102
c-879 1020 -2300 1405 -3581 972 -351 -119 -674 -293 -981 -530 -113 -87 -396
-360 -498 -479 l-51 -60 0 2595 0 2595 51 -60 c29 -33 109 -118 178 -188z"/>
</g>
</svg>
