<?xml version="1.0" standalone="no"?>
<!DOCTYPE svg PUBLIC "-//W3C//DTD SVG 20010904//EN"
 "http://www.w3.org/TR/2001/REC-SVG-20010904/DTD/svg10.dtd">
<svg version="1.0" xmlns="http://www.w3.org/2000/svg"
 width="1367.000000pt" height="296.000000pt" viewBox="0 0 1367.000000 296.000000"
 preserveAspectRatio="xMidYMid meet">

<g transform="translate(0.000000,296.000000) scale(0.100000,-0.100000)"
fill="#000000" stroke="none">
<path d="M150 1533 l0 -1225 92 96 c478 506 1231 636 1848 320 156 -79 268
-162 402 -296 l118 -118 0 1224 0 1224 -122 -122 c-72 -71 -161 -147 -215
-184 -478 -325 -1078 -369 -1585 -117 -162 80 -278 165 -415 301 l-123 122 0
-1225z"/>
<path d="M6406 2285 c-51 -18 -92 -59 -113 -113 -22 -59 -7 -122 43 -173 96
-99 287 -68 333 54 16 40 14 113 -4 146 -43 84 -158 122 -259 86z"/>
<path d="M3310 1707 c0 -227 5 -450 10 -496 41 -324 222 -503 549 -541 159
-19 316 7 446 72 81 42 183 145 223 228 66 135 66 136 70 668 l3 482 -165 0
-165 0 -3 -467 c-4 -530 -3 -522 -84 -612 -60 -66 -112 -86 -229 -86 -50 0
-107 6 -129 14 -83 29 -151 119 -175 229 -7 35 -11 204 -11 487 l0 435 -170 0
-170 0 0 -413z"/>
<path d="M8370 1405 l0 -715 525 0 525 0 0 135 0 135 -360 0 -360 0 0 580 0
580 -165 0 -165 0 0 -715z"/>
<path d="M5486 1799 c-76 -12 -157 -46 -214 -89 l-52 -40 0 60 0 60 -155 0
-155 0 0 -550 0 -550 159 0 159 0 4 318 c4 304 5 319 26 367 48 104 116 148
232 149 114 0 173 -38 210 -134 10 -26 15 -122 18 -367 l4 -333 159 0 159 0 0
345 c0 386 -8 455 -62 558 -84 158 -283 241 -492 206z"/>
<path d="M7325 1803 c-155 -21 -294 -107 -379 -235 -116 -175 -120 -456 -10
-644 143 -245 524 -331 745 -168 l49 36 0 -251 0 -251 163 2 162 3 3 748 2
747 -155 0 -155 0 0 -61 0 -61 -46 41 c-86 75 -237 113 -379 94z m245 -284
c59 -26 106 -72 138 -134 22 -43 26 -62 26 -145 0 -109 -19 -161 -81 -223 -57
-57 -96 -72 -193 -72 -96 0 -136 15 -193 70 -62 60 -82 116 -81 225 1 108 14
148 71 211 58 64 112 87 208 88 40 0 75 -6 105 -20z"/>
<path d="M9982 1799 c-139 -21 -255 -82 -349 -183 -64 -69 -105 -144 -129
-238 -22 -85 -15 -250 15 -332 57 -160 191 -286 365 -343 69 -22 99 -26 201
-27 84 0 139 5 184 17 194 52 335 180 399 361 22 60 26 88 26 186 0 98 -4 126
-26 186 -80 227 -276 364 -539 378 -46 3 -112 0 -147 -5z m243 -290 c100 -51
152 -161 142 -301 -6 -94 -41 -166 -106 -215 -50 -39 -97 -53 -176 -53 -108 0
-201 62 -246 165 -31 70 -31 200 0 271 34 76 93 130 171 155 51 17 163 5 215
-22z"/>
<path d="M11295 1803 c-103 -14 -224 -68 -299 -134 -175 -154 -222 -431 -111
-650 31 -61 113 -149 175 -189 89 -57 180 -82 305 -84 136 -1 223 23 304 85
l54 41 -6 -75 c-5 -73 -29 -139 -66 -181 -9 -10 -38 -30 -66 -45 -47 -24 -58
-26 -185 -26 -155 0 -232 18 -332 79 l-58 34 -57 -101 c-31 -56 -57 -111 -57
-122 -1 -15 19 -30 84 -63 124 -62 216 -83 396 -89 179 -7 280 10 390 62 120
58 198 150 245 290 23 69 24 74 27 613 l3 542 -151 0 -150 0 0 -65 0 -65 -53
43 c-103 84 -243 120 -392 100z m237 -273 c65 -18 130 -70 160 -129 56 -107
29 -257 -58 -329 -58 -48 -121 -65 -218 -60 -117 7 -191 52 -242 148 -28 53
-26 181 3 236 29 55 96 111 153 129 54 16 151 19 202 5z"/>
<path d="M12754 1801 c-231 -37 -401 -173 -468 -373 -71 -211 -24 -429 124
-578 73 -74 167 -128 270 -156 100 -27 274 -25 370 5 146 45 248 118 324 233
55 83 78 158 83 278 9 183 -34 298 -156 421 -82 82 -159 127 -266 154 -74 19
-212 27 -281 16z m231 -288 c99 -52 148 -143 148 -273 0 -136 -51 -226 -158
-276 -58 -27 -156 -32 -217 -10 -100 36 -167 133 -176 255 -11 155 53 266 183
318 46 19 172 11 220 -14z"/>
<path d="M6320 1240 l0 -550 165 0 165 0 0 550 0 550 -165 0 -165 0 0 -550z"/>
</g>
</svg>
