<?xml version="1.0" standalone="no"?>
<!DOCTYPE svg PUBLIC "-//W3C//DTD SVG 20010904//EN"
 "http://www.w3.org/TR/2001/REC-SVG-20010904/DTD/svg10.dtd">
<svg version="1.0" xmlns="http://www.w3.org/2000/svg"
 width="998.000000pt" height="717.000000pt" viewBox="0 0 998.000000 717.000000"
 preserveAspectRatio="xMidYMid meet">

<g transform="translate(0.000000,717.000000) scale(0.100000,-0.100000)"
fill="#000000" stroke="none">
<path d="M3020 4980 l0 -1995 32 40 c60 74 233 247 328 327 256 216 598 398
926 493 117 34 306 71 426 84 125 14 441 14 566 0 476 -51 947 -249 1327 -556
97 -79 288 -267 353 -348 l32 -40 0 1995 0 1995 -62 -70 c-580 -662 -1443
-982 -2304 -856 -603 89 -1144 384 -1557 851 l-67 75 0 -1995z"/>
<path d="M3115 1997 c-48 -22 -93 -80 -100 -130 -19 -125 109 -224 242 -188
147 40 182 215 60 305 -35 26 -156 34 -202 13z"/>
<path d="M192 1383 l3 -468 27 -77 c32 -96 73 -161 141 -225 66 -63 123 -96
217 -125 64 -20 96 -23 225 -23 129 0 161 3 225 23 94 29 151 62 217 125 68
64 109 129 141 225 l27 77 3 468 3 467 -155 0 -155 0 -3 -437 c-4 -377 -6
-445 -21 -489 -39 -119 -121 -181 -251 -191 -140 -11 -246 46 -297 160 -24 52
-24 56 -29 502 l-5 450 -158 3 -158 3 3 -468z"/>
<path d="M4995 1838 c-3 -7 -4 -314 -3 -683 l3 -670 500 0 500 0 3 128 3 127
-346 0 -345 0 0 555 0 555 -155 0 c-115 0 -157 -3 -160 -12z"/>
<path d="M2285 1543 c-100 -12 -198 -53 -252 -106 l-33 -31 0 62 0 62 -145 0
-145 0 0 -525 0 -526 153 3 152 3 5 315 c3 205 9 324 17 341 65 145 283 187
382 74 16 -19 35 -51 40 -72 7 -23 11 -163 11 -350 l0 -313 155 0 155 0 0 338
c0 254 -4 354 -15 405 -37 176 -162 290 -350 318 -61 9 -76 9 -130 2z"/>
<path d="M3974 1535 c-197 -35 -348 -176 -398 -371 -9 -36 -16 -103 -16 -159
0 -164 48 -292 145 -390 96 -95 224 -145 376 -145 106 0 189 23 259 74 l50 36
2 -238 3 -237 150 0 150 0 3 713 2 712 -150 0 -150 0 0 -57 0 -57 -32 31 c-44
42 -128 80 -208 92 -79 13 -96 13 -186 -4z m248 -257 c56 -17 121 -78 148
-140 18 -41 23 -72 24 -133 0 -166 -89 -271 -239 -282 -119 -10 -203 36 -254
139 -27 52 -31 72 -31 138 0 133 44 215 142 264 58 29 142 35 210 14z"/>
<path d="M6550 1540 c-134 -19 -250 -73 -335 -156 -133 -131 -184 -324 -136
-514 26 -105 68 -175 148 -250 109 -103 238 -150 408 -150 123 0 206 19 299
68 311 163 374 600 122 847 -123 120 -322 182 -506 155z m211 -278 c60 -31
111 -96 130 -165 17 -62 7 -184 -19 -233 -25 -49 -72 -98 -116 -121 -17 -9
-63 -18 -101 -21 -87 -5 -157 21 -210 79 -54 60 -68 102 -69 204 -1 109 21
163 91 225 54 47 85 58 174 59 55 1 77 -4 120 -27z"/>
<path d="M7769 1540 c-214 -33 -382 -186 -424 -387 -61 -287 107 -548 392
-608 156 -33 314 -2 413 82 l33 27 -5 -74 c-11 -169 -100 -240 -302 -240 -113
0 -187 18 -290 70 -44 22 -80 39 -81 37 -38 -61 -114 -210 -110 -217 24 -39
227 -113 360 -131 108 -14 286 -6 370 17 138 37 249 123 304 236 57 117 61
153 61 691 l0 487 -145 0 -145 0 0 -62 0 -62 -27 26 c-98 89 -254 131 -404
108z m243 -260 c53 -15 119 -68 148 -120 34 -61 35 -175 3 -235 -49 -92 -127
-135 -248 -135 -168 0 -267 91 -269 245 -1 116 57 203 159 239 48 17 155 20
207 6z"/>
<path d="M9180 1540 c-226 -32 -401 -169 -461 -360 -60 -195 -18 -395 112
-535 111 -118 252 -175 433 -175 124 0 207 19 300 68 254 133 351 454 218 722
-38 76 -143 179 -223 218 -113 55 -260 79 -379 62z m187 -265 c60 -25 102 -63
131 -118 24 -47 27 -62 27 -152 0 -92 -2 -104 -29 -153 -53 -94 -138 -138
-251 -129 -103 8 -174 57 -217 152 -32 71 -31 199 2 268 26 54 94 119 142 134
50 16 154 15 195 -2z"/>
<path d="M3050 1005 l0 -526 153 3 152 3 3 523 2 522 -155 0 -155 0 0 -525z"/>
</g>
</svg>
